<?xml version="1.0" encoding="UTF-8"?>
<svg version="1.1" xmlns="http://www.w3.org/2000/svg" width="517" height="433">
<path d="M0 0 C0.88365234 0.00491455 1.76730469 0.0098291 2.67773438 0.01489258 C9.25895756 0.13293328 15.01817768 0.9218876 21.1875 3.3125 C22.156875 3.6528125 23.12625 3.993125 24.125 4.34375 C38.32812626 9.70615481 48.7003539 19.32254172 57.3125 31.5625 C57.86164063 32.33247314 58.41078125 33.10244629 58.9765625 33.89575195 C64.18551615 41.23194165 69.26195951 48.65967673 74.3125 56.10546875 C74.79976562 56.8123584 75.28703125 57.51924805 75.7890625 58.24755859 C76.70906961 59.60604674 77.60090261 60.98412072 78.4609375 62.38134766 C80.8153411 66.16443734 80.8153411 66.16443734 84.71826172 67.95800781 C89.20661496 68.41663476 93.69183932 68.72960594 98.1953125 68.99609375 C100.17188571 69.12027241 102.14844786 69.24462702 104.125 69.36914062 C107.21177559 69.56010797 110.29864194 69.74916662 113.38574219 69.93481445 C138.71629506 71.46870661 159.36507177 74.41335659 177.796875 93.51171875 C191.03764622 109.02419091 194.29092049 125.57776115 193.1875 145.3125 C191.1039512 162.2102719 180.50186641 175.63423125 167.75 186.1875 C152.99782587 196.96894634 135.53194059 200.97692414 117.5 198.6875 C97.8212047 195.0342583 82.38308222 184.20640175 71.0625 168 C69.55235654 165.79814915 68.05614646 163.5879512 66.5703125 161.36962891 C65.32555988 159.51788357 64.06142218 157.68282862 62.78125 155.85546875 C62.0490625 154.81003906 61.316875 153.76460937 60.5625 152.6875 C59.87124023 151.729646 59.17998047 150.77179199 58.46777344 149.78491211 C56.84109064 147.43524258 55.60215573 145.12068889 54.45605469 142.50537109 C51.96348904 137.27072913 49.3521912 132.49095492 43.68414307 130.38031006 C36.24125597 128.78192929 28.64587528 128.72516907 21.0625 128.5625 C17.66473008 128.42504036 14.26831547 128.26721615 10.87150574 128.10797119 C8.67348105 128.00535606 6.47515226 127.90904613 4.27656555 127.8192749 C-7.2712322 127.30908919 -18.96145057 126.2723098 -29.25 120.5625 C-29.91193359 120.21179443 -30.57386719 119.86108887 -31.25585938 119.49975586 C-46.48100055 111.22416698 -57.55803934 98.50363467 -63.1875 82 C-67.98152058 64.5671979 -65.89589456 47.74289465 -57.17578125 32.078125 C-47.41939966 15.84363815 -31.8946788 6.2105471 -13.96875 1.16796875 C-9.32123439 0.0626744 -4.76007815 -0.03136415 0 0 Z " fill="#EFF1FC" transform="translate(272.8125,76.6875)"/>
<path d="M0 0 C1.37023033 1.14775751 2.72567567 2.3135013 4.0625 3.5 C4.66320312 4.00789063 5.26390625 4.51578125 5.8828125 5.0390625 C17.80378289 15.89088756 23.94556489 31.9804313 25.25 47.76953125 C25.76078859 65.4875106 18.47824584 81.90518472 6.4375 94.6875 C-8.68761667 109.08149321 -25.86770386 113.16407998 -45.9375 114.5 C-47.8614067 114.63740409 -49.78531193 114.77482924 -51.70918274 114.91273499 C-76.70607462 116.68908178 -76.70607462 116.68908178 -86.9375 116.5 C-87.2368042 117.11157959 -87.5361084 117.72315918 -87.84448242 118.35327148 C-90.03315337 122.65190531 -92.91029612 126.55615448 -95.61279297 130.54394531 C-96.55140898 131.92990025 -97.48770064 133.31743061 -98.42236328 134.70605469 C-121.68603191 169.2532131 -121.68603191 169.2532131 -138.9375 178.5 C-139.94490234 179.07041016 -139.94490234 179.07041016 -140.97265625 179.65234375 C-155.34867236 186.9926988 -173.63119081 186.89451428 -188.84375 182.62109375 C-206.48293938 176.22911477 -220.97525488 164.02870402 -229.25 147.0625 C-236.04482009 131.33475643 -236.03610234 113.50432034 -229.9375 97.5 C-222.45623484 81.39396023 -208.67820685 67.75700069 -191.9375 61.5 C-183.39373454 59.17008949 -175.07478609 57.95066111 -166.25 57.4375 C-163.89973363 57.27873394 -161.54947338 57.1198772 -159.19921875 56.9609375 C-155.54791772 56.72696201 -151.89637403 56.49744424 -148.24462891 56.27050781 C-144.68310464 56.04544949 -141.12289799 55.80463024 -137.5625 55.5625 C-136.46977783 55.4998999 -135.37705566 55.4372998 -134.2512207 55.37280273 C-132.72307739 55.26754272 -132.72307739 55.26754272 -131.1640625 55.16015625 C-130.27283691 55.10480713 -129.38161133 55.04945801 -128.46337891 54.99243164 C-124.69639551 54.25804101 -121.91521689 52.62290854 -119.39868164 49.73266602 C-118.75467407 48.75317993 -118.75467407 48.75317993 -118.09765625 47.75390625 C-117.59911133 47.00874756 -117.10056641 46.26358887 -116.58691406 45.49584961 C-116.06323242 44.69284424 -115.53955078 43.88983887 -115 43.0625 C-113.85118235 41.34573687 -112.70141003 39.62961228 -111.55078125 37.9140625 C-110.95861816 37.02493164 -110.36645508 36.13580078 -109.75634766 35.21972656 C-95.20103928 13.45514463 -82.02491437 -5.89870473 -55 -12.375 C-35.15904622 -16.0622569 -16.14708993 -12.13080868 0 0 Z " fill="#EBEDFB" transform="translate(313.9375,233.5)"/>
<path d="M0 0 C13.57167262 10.83484361 23.27541946 24.83892012 25.75390625 42.3671875 C27.73243738 63.53433009 19.02272782 80.66487559 9.28515625 98.73046875 C6.95640383 103.05785922 4.7101401 107.42348348 2.5 111.8125 C2.16170166 112.47636719 1.82340332 113.14023438 1.47485352 113.82421875 C-1.5785694 119.3317233 -1.5785694 119.3317233 -1.26245117 125.26391602 C-0.86002197 126.08561279 -0.45759277 126.90730957 -0.04296875 127.75390625 C0.40546387 128.68154785 0.85389648 129.60918945 1.31591797 130.56494141 C1.80979004 131.55413574 2.30366211 132.54333008 2.8125 133.5625 C3.31152832 134.58520996 3.81055664 135.60791992 4.32470703 136.66162109 C7.54708267 143.21931323 10.92446229 149.68522996 14.375 156.125 C24.21108543 174.52491743 29.13760377 191.49176416 23.24609375 212.11328125 C18.09279086 228.78716956 7.00637724 241.43259273 -8 250 C-11.92585977 251.92277368 -15.86326018 253.58897505 -20 255 C-21.02738281 255.36222656 -22.05476563 255.72445313 -23.11328125 256.09765625 C-40.03658951 260.0265851 -58.70551029 257.74777969 -73.67578125 248.9140625 C-89.54270046 238.84320655 -100.170422 224.43902432 -104.58764648 206.17504883 C-105.29770314 202.42969963 -105.36864563 198.74059045 -105.375 194.9375 C-105.39949219 194.19306641 -105.42398438 193.44863281 -105.44921875 192.68164062 C-105.51550054 179.43632911 -100.33960705 167.6345422 -94.3125 156.125 C-93.68929031 154.90475834 -93.06747979 153.68380115 -92.44702148 152.4621582 C-89.73510558 147.14586949 -86.95481734 141.87206817 -84.046875 136.66015625 C-83.62108154 135.88978027 -83.19528809 135.1194043 -82.7565918 134.32568359 C-81.98970061 132.95246074 -81.20598073 131.58842766 -80.40161133 130.23681641 C-77.84060083 125.68214268 -77.94819752 123.03446653 -79 118 C-80.2183934 114.98743662 -80.2183934 114.98743662 -81.84375 112.078125 C-82.42664795 110.97927979 -83.0095459 109.88043457 -83.61010742 108.74829102 C-84.54560425 107.01663696 -84.54560425 107.01663696 -85.5 105.25 C-86.78288697 102.82973595 -88.05711109 100.40493673 -89.33203125 97.98046875 C-89.64803787 97.38173447 -89.96404449 96.78300018 -90.28962708 96.16612244 C-101.68440612 74.55207953 -109.76460042 54.84528336 -102.24609375 30.390625 C-95.91583303 13.16596574 -82.53658409 0.02139544 -66.01416016 -7.64208984 C-44.15117784 -17.06475792 -19.32852828 -13.64711239 0 0 Z " fill="#E5E5FB" transform="translate(185,18)"/>
<path d="M0 0 C4.34611217 3.63004792 6.29612712 8.18417926 8.6875 13.1875 C9.56315342 14.98532644 10.44079666 16.78218493 11.3203125 18.578125 C11.7627832 19.48240234 12.20525391 20.38667969 12.66113281 21.31835938 C15.05835569 26.11979922 17.62289005 30.83380789 20.21948242 35.5300293 C22.10044874 39.00022902 23.5069979 42.06356783 24 46 C23.34 46 22.68 46 22 46 C22 46.66 22 47.32 22 48 C20.35 48.66 18.7 49.32 17 50 C17 49.34 17 48.68 17 48 C17.66 48 18.32 48 19 48 C19.33 46.35 19.66 44.7 20 43 C19.67 43 19.34 43 19 43 C19 41.35 19 39.7 19 38 C17.02 38.495 17.02 38.495 15 39 C14.12132271 35.26562152 13.91087781 31.83225427 14 28 C13.34 28 12.68 28 12 28 C11.731875 27.38125 11.46375 26.7625 11.1875 26.125 C10.04443152 23.7004767 10.04443152 23.7004767 7 22 C6.8125 18.875 6.8125 18.875 7 16 C6.34 16 5.68 16 5 16 C4.01 16 3.02 16 2 16 C1.01 16.33 0.02 16.66 -1 17 C-1.59070014 18.94603274 -1.59070014 18.94603274 -2 21 C-2.66 21.66 -3.32 22.32 -4 23 C-4.103125 23.804375 -4.20625 24.60875 -4.3125 25.4375 C-5 28 -5 28 -7.5625 29.5 C-8.366875 29.995 -9.17125 30.49 -10 31 C-10.41780879 33.62694422 -10.41780879 33.62694422 -10 36 C-10.99 36.495 -10.99 36.495 -12 37 C-12.66 36.67 -13.32 36.34 -14 36 C-14 37.32 -14 38.64 -14 40 C-13.34 40 -12.68 40 -12 40 C-12.33 40.99 -12.66 41.98 -13 43 C-13.33 42.34 -13.66 41.68 -14 41 C-16.475 43.475 -16.475 43.475 -19 46 C-17.68 46.99 -16.36 47.98 -15 49 C-17.35277269 51.72426311 -19.62496331 52.8141763 -23 54 C-22.979375 53.21625 -22.95875 52.4325 -22.9375 51.625 C-22.81315937 49.01885039 -22.81315937 49.01885039 -24 47 C-22.98706055 44.50415039 -22.98706055 44.50415039 -21.38671875 41.34765625 C-20.80229004 40.1865332 -20.21786133 39.02541016 -19.61572266 37.82910156 C-18.97325678 36.57342696 -18.33051054 35.31789577 -17.6875 34.0625 C-17.0442276 32.79291239 -16.40148849 31.52305445 -15.75927734 30.25292969 C-10.61825902 20.11016736 -5.36014168 10.02865217 0 0 Z " fill="#ADBDF1" transform="translate(108,141)"/>
<path d="M0 0 C-0.66 1.32 -1.32 2.64 -2 4 C-3.5778125 3.7215625 -3.5778125 3.7215625 -5.1875 3.4375 C-8.72617462 3.03142258 -10.60861701 3.2876089 -14 4 C-17.05183132 4.25264832 -20.10331863 4.43991926 -23.16015625 4.62109375 C-25.91676543 4.98889442 -27.5674297 5.74849946 -30 7 C-30.66 6.67 -31.32 6.34 -32 6 C-32 6.66 -32 7.32 -32 8 C-33.41633336 8.16947579 -34.83308533 8.33545507 -36.25 8.5 C-37.03890625 8.5928125 -37.8278125 8.685625 -38.640625 8.78125 C-41 9 -41 9 -45 9 C-45.33 9.99 -45.66 10.98 -46 12 C-46.804375 11.814375 -47.60875 11.62875 -48.4375 11.4375 C-49.283125 11.293125 -50.12875 11.14875 -51 11 C-51.33 11.33 -51.66 11.66 -52 12 C-50.7511573 13.5833253 -50.7511573 13.5833253 -49 15 C-47.68 15 -46.36 15 -45 15 C-45.8125 16.9375 -45.8125 16.9375 -47 19 C-47.99 19.33 -48.98 19.66 -50 20 C-50 19.01 -50 18.02 -50 17 C-52.80045046 16.14349347 -52.80045046 16.14349347 -56 16 C-58.67612341 18.08142932 -60.11445225 20.17167838 -62 23 C-63.32 22.67 -64.64 22.34 -66 22 C-66.0928125 22.928125 -66.0928125 22.928125 -66.1875 23.875 C-66.455625 24.57625 -66.72375 25.2775 -67 26 C-68.2375 26.4640625 -68.2375 26.4640625 -69.5 26.9375 C-70.325 27.288125 -71.15 27.63875 -72 28 C-73.1807689 31.28928478 -73.1157177 32.65284689 -72 36 C-72.804375 36.350625 -73.60875 36.70125 -74.4375 37.0625 C-77.37511528 38.81331106 -77.37511528 38.81331106 -77.5 42.375 C-77.665 43.57125 -77.83 44.7675 -78 46 C-80.5625 48.9375 -80.5625 48.9375 -83 51 C-83.144375 50.401875 -83.28875 49.80375 -83.4375 49.1875 C-83.8872439 47.43849596 -84.42892341 45.71322977 -85 44 C-82.07309402 36.1398412 -77.49751519 29.27420608 -72 23 C-71.46761719 22.38511719 -70.93523437 21.77023437 -70.38671875 21.13671875 C-65.62967164 16.01636494 -60.00591469 12.50563579 -54 9 C-52.99646484 8.39478516 -52.99646484 8.39478516 -51.97265625 7.77734375 C-37.10781693 -0.48788403 -16.56511715 -0.22338851 0 0 Z " fill="#D3D5FA" transform="translate(168,290)"/>
<path d="M0 0 C0.99 0.99 0.99 0.99 2 2 C-2.53025224 19.96205273 -12.22045881 34.08289245 -27.72265625 44.12890625 C-32.63697637 46.93457888 -37.64675399 49.17402978 -43 51 C-44.54107422 51.54333984 -44.54107422 51.54333984 -46.11328125 52.09765625 C-63.03658951 56.0265851 -81.70551029 53.74777969 -96.67578125 44.9140625 C-109.4548875 36.80306524 -119.89880975 25.40336071 -125 11 C-125 10.01 -125 9.02 -125 8 C-124.34 8 -123.68 8 -123 8 C-122.49210937 9.14597656 -121.98421875 10.29195312 -121.4609375 11.47265625 C-120.76623428 13.00288092 -120.0708872 14.5328134 -119.375 16.0625 C-119.04371094 16.81466797 -118.71242188 17.56683594 -118.37109375 18.34179688 C-115.31576488 25.00010791 -111.43515029 30.8441166 -105.125 34.8125 C-104.09375 35.534375 -103.0625 36.25625 -102 37 C-102 37.66 -102 38.32 -102 39 C-100.66730646 39.66794472 -99.33377251 40.33421241 -98 41 C-97.08347656 41.46277344 -96.16695312 41.92554688 -95.22265625 42.40234375 C-78.43268173 50.55866017 -62.43287484 51.43452029 -44.1875 48.92578125 C-41.73482198 48.1647634 -41.73482198 48.1647634 -40.6875 45.41796875 C-40.460625 44.62003906 -40.23375 43.82210937 -40 43 C-39.443125 43.20625 -38.88625 43.4125 -38.3125 43.625 C-35.32761639 44.10903518 -33.73455148 43.19198398 -31 42 C-30.01 42 -29.02 42 -28 42 C-28 40.68 -28 39.36 -28 38 C-26.02 37.67 -24.04 37.34 -22 37 C-22 36.34 -22 35.68 -22 35 C-21.34 35 -20.68 35 -20 35 C-19.67 34.01 -19.34 33.02 -19 32 C-16.4375 30.8125 -16.4375 30.8125 -14 30 C-14 29.01 -14 28.02 -14 27 C-13.01 26.505 -13.01 26.505 -12 26 C-11.505 24.515 -11.505 24.515 -11 23 C-10.34 23 -9.68 23 -9 23 C-8.814375 21.329375 -8.814375 21.329375 -8.625 19.625 C-8 16 -8 16 -6 14 C-6.32041397 11.39719432 -6.32041397 11.39719432 -7 9 C-6.34 9 -5.68 9 -5 9 C-4.731875 8.071875 -4.46375 7.14375 -4.1875 6.1875 C-3.08851629 3.23759634 -2.37581439 1.94384814 0 0 Z " fill="#FCFAFA" transform="translate(208,222)"/>
<path d="M0 0 C0.495 0.99 0.495 0.99 1 2 C1.66 2.33 2.32 2.66 3 3 C-0.02199494 13.11206 -3.83488844 22.28013679 -8.74902344 31.59960938 C-10.19810815 34.38013257 -11.60276715 37.18134928 -13.0078125 39.984375 C-14.06703904 42.07325618 -15.1269327 44.16179923 -16.1875 46.25 C-16.68644775 47.25095703 -17.18539551 48.25191406 -17.69946289 49.28320312 C-20.21113459 54.17041935 -22.18859159 58.00936223 -27 61 C-28.19984797 58.73495035 -29.38494769 56.46410112 -30.5625 54.1875 C-30.90474609 53.54490234 -31.24699219 52.90230469 -31.59960938 52.24023438 C-32.4765023 50.53073605 -33.24515617 48.76678706 -34 47 C-33.67 46.01 -33.34 45.02 -33 44 C-31.68 44.33 -30.36 44.66 -29 45 C-28.67 42.69 -28.34 40.38 -28 38 C-27.34 38 -26.68 38 -26 38 C-25.67 37.34 -25.34 36.68 -25 36 C-25 38.62113708 -25.31292445 40.50935112 -26 43 C-25.34 43 -24.68 43 -24 43 C-23.67 42.01 -23.34 41.02 -23 40 C-21.68 40.33 -20.36 40.66 -19 41 C-19.12375 40.278125 -19.2475 39.55625 -19.375 38.8125 C-18.94638494 35.59788706 -18.49947518 35.20465124 -16.125 33.1875 C-13 31 -13 31 -11 31 C-11.5259375 29.824375 -11.5259375 29.824375 -12.0625 28.625 C-12.5265625 27.325625 -12.5265625 27.325625 -13 26 C-12.67 25.34 -12.34 24.68 -12 24 C-11.01 24 -10.02 24 -9 24 C-8.566875 22.081875 -8.566875 22.081875 -8.125 20.125 C-7.45897517 17.17546145 -7.19797403 16.19797403 -5 14 C-4.64080332 12.33871537 -4.31088368 10.67099977 -4 9 C-3.36562656 7.3207762 -2.70710678 5.64991582 -2 4 C-1.34 4 -0.68 4 0 4 C0 2.68 0 1.36 0 0 Z " fill="#B4C3F4" transform="translate(207,78)"/>
<path d="M0 0 C13.89405691 4.03375846 24.13823511 15.62249969 31.2421875 27.69921875 C39.03318747 42.32898535 40.87257255 57.94495963 37 74 C30.81267315 92.85201148 19.00555091 105.45770028 2 115 C1.01 114.34 0.02 113.68 -1 113 C-0.03900391 112.54560547 -0.03900391 112.54560547 0.94140625 112.08203125 C10.65122691 107.52736575 10.65122691 107.52736575 18 100 C18.66 100 19.32 100 20 100 C20.26296875 99.42636719 20.5259375 98.85273438 20.796875 98.26171875 C22.0699689 95.86846755 23.57612768 93.94254023 25.25 91.8125 C34.82446545 78.00278882 37.05115654 62.51436287 35 46 C33.89592215 40.75901856 32.02894493 35.94917638 30 31 C30 30.34 30 29.68 30 29 C29.34 29 28.68 29 28 29 C27.20724852 27.5839401 26.41584688 26.16712447 25.625 24.75 C25.18414062 23.96109375 24.74328125 23.1721875 24.2890625 22.359375 C23.14252177 20.26085803 22.05350448 18.1463923 21 16 C20.34 16 19.68 16 19 16 C19 15.34 19 14.68 19 14 C18.34 14 17.68 14 17 14 C17 13.34 17 12.68 17 12 C16.0409375 11.8453125 16.0409375 11.8453125 15.0625 11.6875 C14.0415625 11.3471875 14.0415625 11.3471875 13 11 C12.67 10.01 12.34 9.02 12 8 C10.6696875 7.566875 10.6696875 7.566875 9.3125 7.125 C5.22452449 5.73663096 3.14666354 3.92190186 0 1 C0 0.67 0 0.34 0 0 Z " fill="#F9F8FC" transform="translate(300,226)"/>
<path d="M0 0 C0.495 0.99 0.495 0.99 1 2 C-0.19625 1.835 -1.3925 1.67 -2.625 1.5 C-19.14767221 -0.22971725 -34.73307196 1.88569333 -49 11 C-49.99 12.485 -49.99 12.485 -51 14 C-52.32 14 -53.64 14 -55 14 C-55.93423645 17.01031744 -56.04449911 17.86650268 -55 21 C-56.98 21 -58.96 21 -61 21 C-64.22193962 25.60823232 -64.22193962 25.60823232 -64.75 30.9375 C-64.5025 31.618125 -64.255 32.29875 -64 33 C-65.625 34.5625 -65.625 34.5625 -68 36 C-71.25 35.6875 -71.25 35.6875 -74 35 C-67.90809369 19.91527962 -53.62127676 8.79141751 -39.05078125 2.51171875 C-26.9454047 -2.28975639 -12.54473798 -4.03223721 0 0 Z " fill="#FAF9F7" transform="translate(160,7)"/>
<path d="M0 0 C0.66 0.33 1.32 0.66 2 1 C1.54177532 4.46941546 1.10868317 7.67395049 0 11 C0.66 11 1.32 11 2 11 C2.33 12.65 2.66 14.3 3 16 C3.99 16.33 4.98 16.66 6 17 C5.67 18.65 5.34 20.3 5 22 C5.66 22 6.32 22 7 22 C7.50403768 23.29009643 8.00309926 24.58213789 8.5 25.875 C8.7784375 26.59429687 9.056875 27.31359375 9.34375 28.0546875 C10 30 10 30 10 32 C10.66 32 11.32 32 12 32 C12.33 30.68 12.66 29.36 13 28 C13.12375 28.639375 13.2475 29.27875 13.375 29.9375 C13.58125 30.618125 13.7875 31.29875 14 32 C14.66 32.33 15.32 32.66 16 33 C16 34.32 16 35.64 16 37 C16.83612605 39.78708684 17.69852367 42.39704735 19 45 C19.99 45 20.98 45 22 45 C22.144375 45.78375 22.28875 46.5675 22.4375 47.375 C22.87798925 49.96421018 22.87798925 49.96421018 24 52 C23.71887936 54.00800456 23.38932033 56.01014051 23 58 C19.57865074 55.23780977 18.1824038 51.41065555 16.4375 47.5 C13.46028897 40.99564723 10.29822189 34.62712629 6.9375 28.3125 C6.51807129 27.52101563 6.09864258 26.72953125 5.66650391 25.9140625 C4.84084619 24.35609628 4.01484504 22.798312 3.18847656 21.24072266 C2.7962793 20.50128418 2.40408203 19.7618457 2 19 C1.62327148 18.29020996 1.24654297 17.58041992 0.85839844 16.84912109 C-0.16758074 14.90474742 -1.17962751 12.95380579 -2.1875 11 C-2.75855469 9.906875 -3.32960937 8.81375 -3.91796875 7.6875 C-5 5 -5 5 -4 2 C-2.68 2 -1.36 2 0 2 C0 1.34 0 0.68 0 0 Z " fill="#B2BDF0" transform="translate(150,64)"/>
<path d="M0 0 C0.33 0 0.66 0 1 0 C1.06058594 1.05058594 1.12117187 2.10117188 1.18359375 3.18359375 C1.61546473 10.48282152 2.09263954 17.74111635 3 25 C3.66 25 4.32 25 5 25 C5.33 27.64 5.66 30.28 6 33 C7.32 33.33 8.64 33.66 10 34 C9.79375 34.61875 9.5875 35.2375 9.375 35.875 C9.25125 36.57625 9.1275 37.2775 9 38 C9.66 38.66 10.32 39.32 11 40 C11.61875 41.6396875 11.61875 41.6396875 12.25 43.3125 C13.92936885 47.47176585 16.42374873 49.37741573 20 52 C19.34 52.99 18.68 53.98 18 55 C5.20670492 41.8411822 -0.90863659 27.63588373 -2.1171875 9.41015625 C-1.99637043 5.89437961 -1.28333776 3.25808617 0 0 Z " fill="#FCFBFA" transform="translate(209,131)"/>
<path d="M0 0 C2.7839183 1.39195915 2.97898997 3.15575779 4 6 C4.66 6 5.32 6 6 6 C8.50294752 16.20547054 10.29489976 25.6174293 8 36 C7.01 35.34 6.02 34.68 5 34 C4.56762695 31.75341797 4.56762695 31.75341797 4.48828125 28.9921875 C4.45283203 28.00605469 4.41738281 27.01992187 4.38085938 26.00390625 C4.35830078 24.97136719 4.33574219 23.93882813 4.3125 22.875 C4.27833984 21.83472656 4.24417969 20.79445313 4.20898438 19.72265625 C4.12632942 17.14854493 4.05723845 14.57478171 4 12 C1.69 12 -0.62 12 -3 12 C-3.125 4.25 -3.125 4.25 -2 2 C-1.34 2 -0.68 2 0 2 C0 1.34 0 0.68 0 0 Z " fill="#D6D1F8" transform="translate(202,43)"/>
<path d="M0 0 C0.33 0.66 0.66 1.32 1 2 C1.66 2.33 2.32 2.66 3 3 C-0.07605071 13.29293892 -4.02836415 22.60466311 -9.01123047 32.10302734 C-10.54695439 35.04934213 -12.02111927 38.02475768 -13.5 41 C-14.33333333 42.66666667 -15.16666667 44.33333333 -16 46 C-16.66 45.34 -17.32 44.68 -18 44 C-17.47148437 42.95199219 -16.94296875 41.90398437 -16.3984375 40.82421875 C-15.72322956 39.44566921 -15.04879003 38.06674312 -14.375 36.6875 C-14.024375 35.99720703 -13.67375 35.30691406 -13.3125 34.59570312 C-12.19030364 32.35207 -12.19030364 32.35207 -11 29 C-11.66 28.01 -12.32 27.02 -13 26 C-12.67 25.34 -12.34 24.68 -12 24 C-11.01 24 -10.02 24 -9 24 C-8.566875 22.081875 -8.566875 22.081875 -8.125 20.125 C-7.45897517 17.17546145 -7.19797403 16.19797403 -5 14 C-4.64080332 12.33871537 -4.31088368 10.67099977 -4 9 C-3.36562656 7.3207762 -2.70710678 5.64991582 -2 4 C-1.34 4 -0.68 4 0 4 C0 2.68 0 1.36 0 0 Z " fill="#C9C8FB" transform="translate(207,78)"/>
<path d="M0 0 C8.2364936 1.79625658 16.58388879 3.8701452 24 8 C24.33 8.99 24.66 9.98 25 11 C26.49985609 12.66710346 26.49985609 12.66710346 28 14 C27.01 15.65 26.02 17.3 25 19 C24.34 18.34 23.68 17.68 23 17 C23.66 17 24.32 17 25 17 C25 16.34 25 15.68 25 15 C23.35 15 21.7 15 20 15 C20.99 14.67 21.98 14.34 23 14 C23 13.34 23 12.68 23 12 C20.71523122 12.5077264 18.71584058 13.12386436 16.5625 14.0625 C13.85755065 15.05211562 11.85458841 15.16311934 9 15 C11.12780579 12.65941363 13.11562221 11.29299694 16 10 C15.34 9.67 14.68 9.34 14 9 C14.33 8.34 14.66 7.68 15 7 C13.35 7.33 11.7 7.66 10 8 C10 7.34 10 6.68 10 6 C6.00737078 5.09843856 2.06028342 4.7005602 -2.01171875 4.37890625 C-4 4 -4 4 -6 2 C-4.02 2 -2.04 2 0 2 C0 1.34 0 0.68 0 0 Z " fill="#E0DEF6" transform="translate(282,77)"/>
<path d="M0 0 C0.33 0 0.66 0 1 0 C0.91621094 0.66386719 0.83242187 1.32773438 0.74609375 2.01171875 C-0.05425042 8.54720848 -0.05425042 8.54720848 1 15 C0.01 15.495 0.01 15.495 -1 16 C-1.66 15.67 -2.32 15.34 -3 15 C-3 16.32 -3 17.64 -3 19 C-2.34 19 -1.68 19 -1 19 C-1.33 19.99 -1.66 20.98 -2 22 C-2.33 21.34 -2.66 20.68 -3 20 C-4.65 21.65 -6.3 23.3 -8 25 C-6.68 25.99 -5.36 26.98 -4 28 C-6.35277269 30.72426311 -8.62496331 31.8141763 -12 33 C-11.979375 32.21625 -11.95875 31.4325 -11.9375 30.625 C-11.81315937 28.01885039 -11.81315937 28.01885039 -13 26 C-11.92016602 23.38623047 -11.92016602 23.38623047 -10.25390625 20.1171875 C-9.66416016 18.95058594 -9.07441406 17.78398437 -8.46679688 16.58203125 C-7.83220174 15.3462666 -7.19743385 14.11059065 -6.5625 12.875 C-5.93091232 11.63188018 -5.30004346 10.38839486 -4.66992188 9.14453125 C-3.12033581 6.09267473 -1.5634264 3.04478318 0 0 Z " fill="#AFBBF4" transform="translate(97,162)"/>
<path d="M0 0 C3.35007008 1.11669003 4.35070022 2.46760029 6.42578125 5.234375 C16.13898864 16.12859272 33.48955257 22.23600071 47.76171875 23.2734375 C53.55761634 23.53969235 53.55761634 23.53969235 59 22 C60.99960012 21.960008 63.00047242 21.95653201 65 22 C63 25 63 25 60.12109375 25.6171875 C42.19939469 26.87151638 24.29754704 23.62459764 10.078125 11.9140625 C1.43869966 4.31609899 1.43869966 4.31609899 0 0 Z " fill="#FCFBFA" transform="translate(94,393)"/>
<path d="M0 0 C1.98 0.99 1.98 0.99 4 2 C4.33 1.34 4.66 0.68 5 0 C5 0.99 5 1.98 5 3 C5.763125 2.773125 6.52625 2.54625 7.3125 2.3125 C10 2 10 2 11.875 3.125 C13 5 13 5 12.6875 7.6875 C12.460625 8.450625 12.23375 9.21375 12 10 C12.99 10.33 13.98 10.66 15 11 C15.33 11.33 15.66 11.66 16 12 C18.33297433 12.04092937 20.66705225 12.04241723 23 12 C22.67 12.66 22.34 13.32 22 14 C22.66 14.33 23.32 14.66 24 15 C23 17 23 17 21 18 C17.52662474 17.03927918 15.01322906 16.00881937 12 14 C12 13.34 12 12.68 12 12 C11.443125 11.7525 10.88625 11.505 10.3125 11.25 C6.05286076 8.9474923 2.60206299 6.10852051 0 2 C0 1.34 0 0.68 0 0 Z " fill="#DDD5F5" transform="translate(94,247)"/>
<path d="M0 0 C0.33 0 0.66 0 1 0 C1.99 2.97 2.98 5.94 4 9 C5.32 8.34 6.64 7.68 8 7 C9.32 7 10.64 7 12 7 C11.62875 8.216875 11.2575 9.43375 10.875 10.6875 C9.91745781 14.43122397 10.05477623 16.54182441 12 20 C11.34 20.33 10.68 20.66 10 21 C10 20.34 10 19.68 10 19 C8.68 19.33 7.36 19.66 6 20 C5.15930585 18.39967863 4.32768495 16.79458829 3.5 15.1875 C3.0359375 14.29417969 2.571875 13.40085938 2.09375 12.48046875 C1 10 1 10 1 7 C0.01 6.67 -0.98 6.34 -2 6 C-1.34 6 -0.68 6 0 6 C0 4.02 0 2.04 0 0 Z " fill="#D2C9F6" transform="translate(84,223)"/>
<path d="M0 0 C0.66 0 1.32 0 2 0 C2.50789063 1.14597656 3.01578125 2.29195312 3.5390625 3.47265625 C4.23376572 5.00288092 4.9291128 6.5328134 5.625 8.0625 C5.95628906 8.81466797 6.28757812 9.56683594 6.62890625 10.34179688 C9.68423512 17.00010791 13.56484971 22.8441166 19.875 26.8125 C21.421875 27.8953125 21.421875 27.8953125 23 29 C23 29.66 23 30.32 23 31 C24.32 31.66 25.64 32.32 27 33 C27 33.99 27 34.98 27 36 C15.15380613 26.82337095 5.14078364 17.5151538 0 3 C0 2.01 0 1.02 0 0 Z " fill="#F3EFF8" transform="translate(83,230)"/>
<path d="M0 0 C0.66 0.66 1.32 1.32 2 2 C1.67 2.99 1.34 3.98 1 5 C1.33 5.99 1.66 6.98 2 8 C1.195625 8.350625 0.39125 8.70125 -0.4375 9.0625 C-3.37511528 10.81331106 -3.37511528 10.81331106 -3.5 14.375 C-3.665 15.57125 -3.83 16.7675 -4 18 C-6.5625 20.9375 -6.5625 20.9375 -9 23 C-9.144375 22.401875 -9.28875 21.80375 -9.4375 21.1875 C-9.8872439 19.43849596 -10.42892341 17.71322977 -11 16 C-10.34 15.01 -9.68 14.02 -9 13 C-8.67 13.33 -8.34 13.66 -8 14 C-5.36 9.38 -2.72 4.76 0 0 Z " fill="#C8CCF9" transform="translate(94,318)"/>
<path d="M0 0 C1.29456734 2.58913468 0.93282201 4.13808725 0.625 7 C0.53476563 7.886875 0.44453125 8.77375 0.3515625 9.6875 C0 12 0 12 -1 14 C-0.01 14.99 0.98 15.98 2 17 C1.01 17.33 0.02 17.66 -1 18 C-1.72886396 19.84462187 -1.72886396 19.84462187 -2.0625 22 C-2.47265625 24.1875 -2.47265625 24.1875 -3 26 C-3.66 26.33 -4.32 26.66 -5 27 C-5.37879332 18.30178303 -4.97693545 10.26167866 -2 2 C-1.34 1.34 -0.68 0.68 0 0 Z " fill="#DDD1F9" transform="translate(85,189)"/>
<path d="M0 0 C1.75 1.3125 1.75 1.3125 2.75 3.3125 C4.07 3.3125 5.39 3.3125 6.75 3.3125 C5.9375 5.25 5.9375 5.25 4.75 7.3125 C3.76 7.6425 2.77 7.9725 1.75 8.3125 C1.75 7.3225 1.75 6.3325 1.75 5.3125 C-1.05045046 4.45599347 -1.05045046 4.45599347 -4.25 4.3125 C-6.92612341 6.39392932 -8.36445225 8.48417838 -10.25 11.3125 C-11.57 10.3225 -12.89 9.3325 -14.25 8.3125 C-3.65954421 -1.11819406 -3.65954421 -1.11819406 0 0 Z " fill="#C1CCF4" transform="translate(116.25,301.6875)"/>
<path d="M0 0 C-0.97408307 2.84107563 -1.85681644 4.84011169 -3.875 7.09375 C-6.6730288 10.92046586 -7.85937676 14.81780701 -9.25 19.3125 C-9.518125 20.14845703 -9.78625 20.98441406 -10.0625 21.84570312 C-10.71797865 23.89407391 -11.36032382 25.94663946 -12 28 C-12.66 28 -13.32 28 -14 28 C-14 21.33262547 -12.07370362 16.48541633 -9.125 10.625 C-8.77308594 9.92310547 -8.42117187 9.22121094 -8.05859375 8.49804688 C-3.64125151 0 -3.64125151 0 0 0 Z " fill="#FBFAF9" transform="translate(223,102)"/>
<path d="M0 0 C0.66 0.33 1.32 0.66 2 1 C1.45859375 2.24716797 1.45859375 2.24716797 0.90625 3.51953125 C0.4421875 4.60621094 -0.021875 5.69289062 -0.5 6.8125 C-0.9640625 7.89144531 -1.428125 8.97039062 -1.90625 10.08203125 C-3.17549303 12.94882024 -3.17549303 12.94882024 -3 16 C-1.68 16.66 -0.36 17.32 1 18 C-1.35277269 20.72426311 -3.62496331 21.8141763 -7 23 C-6.979375 22.21625 -6.95875 21.4325 -6.9375 20.625 C-6.81315937 18.01885039 -6.81315937 18.01885039 -8 16 C-7.37915039 14.30419922 -7.37915039 14.30419922 -6.34765625 12.3046875 C-5.98349609 11.58925781 -5.61933594 10.87382812 -5.24414062 10.13671875 C-4.85419922 9.39035156 -4.46425781 8.64398438 -4.0625 7.875 C-3.67642578 7.12089844 -3.29035156 6.36679688 -2.89257812 5.58984375 C-1.93547868 3.72290903 -0.96863894 1.86097372 0 0 Z " fill="#CEC8F9" transform="translate(92,172)"/>
<path d="M0 0 C3.58784902 4.30541882 6.77931309 9.35175705 7.25 15 C7.1675 15.66 7.085 16.32 7 17 C5.02 17.99 3.04 18.98 1 20 C0.01693092 16.61387318 0.06907379 13.93677095 0.5625 10.5 C1.06193037 6.76051514 0.86068932 4.39302169 -1 1 C-0.67 0.67 -0.34 0.34 0 0 Z " fill="#B9C6F0" transform="translate(137,197)"/>
<path d="M0 0 C4.8274799 1.41292095 8.7162359 3.42974154 13 6 C12.34 7.65 11.68 9.3 11 11 C10.01 11 9.02 11 8 11 C8.66 10.67 9.32 10.34 10 10 C10 9.34 10 8.68 10 8 C8.35 8 6.7 8 5 8 C5.99 7.67 6.98 7.34 8 7 C8 6.34 8 5.68 8 5 C5.71523122 5.5077264 3.71584058 6.12386436 1.5625 7.0625 C-1.14244935 8.05211562 -3.14541159 8.16311934 -6 8 C-3.87219421 5.65941363 -1.88437779 4.29299694 1 3 C0.34 2.67 -0.32 2.34 -1 2 C-0.67 1.34 -0.34 0.68 0 0 Z " fill="#CAD1F5" transform="translate(297,84)"/>
<path d="M0 0 C0.12375 0.556875 0.2475 1.11375 0.375 1.6875 C0.95850962 4.03148368 0.95850962 4.03148368 1.9375 6.3125 C3.19465825 9.49237087 4.09080755 12.70417736 5 16 C5.37364775 17.3128856 5.74859984 18.62540085 6.125 19.9375 C6.41375 20.948125 6.7025 21.95875 7 23 C4.76537038 20.93604369 3.3343007 19.03678948 1.9921875 16.3125 C1.64542969 15.61382812 1.29867187 14.91515625 0.94140625 14.1953125 C0.58949219 13.47085938 0.23757812 12.74640625 -0.125 12 C-0.66447266 10.91332031 -0.66447266 10.91332031 -1.21484375 9.8046875 C-2.65529015 6.88063527 -3.96707986 4.09876041 -5 1 C-3.35 0.67 -1.7 0.34 0 0 Z " fill="#FCFBF5" transform="translate(98,109)"/>
<path d="M0 0 C2 1 2 1 3.125 4.3125 C4 8 4 8 4 12 C1.69 12 -0.62 12 -3 12 C-3.125 4.25 -3.125 4.25 -2 2 C-1.34 2 -0.68 2 0 2 C0 1.34 0 0.68 0 0 Z " fill="#BFBEF8" transform="translate(202,43)"/>
<path d="M0 0 C1.98 0.495 1.98 0.495 4 1 C4 1.66 4 2.32 4 3 C4.598125 3.268125 5.19625 3.53625 5.8125 3.8125 C7.99847854 4.99917406 9.41332594 6.09599113 11 8 C11 8.66 11 9.32 11 10 C10.01 10 9.02 10 8 10 C8 9.34 8 8.68 8 8 C7.01 8.66 6.02 9.32 5 10 C3.68 10 2.36 10 1 10 C0.61781233 8.34385343 0.28604898 6.67542976 0 5 C0.33 4.67 0.66 4.34 1 4 C0.34 3.34 -0.32 2.68 -1 2 C-0.67 1.34 -0.34 0.68 0 0 Z " fill="#C9C2F5" transform="translate(180,18)"/>
<path d="M0 0 C0.66 0 1.32 0 2 0 C0.61793679 8.75306698 -3.11933192 16.12452654 -7 24 C-8.32 23.67 -9.64 23.34 -11 23 C-10.505 21.515 -10.505 21.515 -10 20 C-9.01 20 -8.02 20 -7 20 C-6.566875 18.081875 -6.566875 18.081875 -6.125 16.125 C-5.45897517 13.17546145 -5.19797403 12.19797403 -3 10 C-2.64080332 8.33871537 -2.31088368 6.67099977 -2 5 C-1.36562656 3.3207762 -0.70710678 1.64991582 0 0 Z " fill="#B5C2F4" transform="translate(205,82)"/>
<path d="M0 0 C1.32 0.66 2.64 1.32 4 2 C4 2.66 4 3.32 4 4 C3.01 4 2.02 4 1 4 C1 4.66 1 5.32 1 6 C-2.2491277 8.3208055 -5.05879291 9.43697042 -9 10 C-9 9.01 -9 8.02 -9 7 C-7.03125 5.17578125 -7.03125 5.17578125 -4.5 3.3125 C-3.6646875 2.68988281 -2.829375 2.06726563 -1.96875 1.42578125 C-1.3190625 0.95527344 -0.669375 0.48476562 0 0 Z " fill="#FCFBFA" transform="translate(236,231)"/>
<path d="M0 0 C-1.2065625 0.37125 -1.2065625 0.37125 -2.4375 0.75 C-5.171081 1.72238859 -5.171081 1.72238859 -5.8125 4.125 C-5.874375 4.74375 -5.93625 5.3625 -6 6 C-6.60328125 6.09152344 -7.2065625 6.18304688 -7.828125 6.27734375 C-10.53257263 7.17720492 -11.2082314 8.20702019 -12.75 10.5625 C-13.17796875 11.20316406 -13.6059375 11.84382813 -14.046875 12.50390625 C-14.36140625 12.99761719 -14.6759375 13.49132812 -15 14 C-15.99 13.01 -16.98 12.02 -18 11 C-14.50808816 6.05312489 -9.70882972 1.28172792 -3.875 -0.734375 C-2 -1 -2 -1 0 0 Z " fill="#E6E1F7" transform="translate(245,88)"/>
<path d="M0 0 C20.21359223 9.32038835 20.21359223 9.32038835 26 18 C22.01328937 16.63312778 19.11505367 14.84804907 16 12 C16 11.34 16 10.68 16 10 C15.30519531 9.73445313 14.61039063 9.46890625 13.89453125 9.1953125 C10.74323924 7.89396924 7.72999829 6.41296617 4.6875 4.875 C3.61886719 4.33617187 2.55023438 3.79734375 1.44921875 3.2421875 C0.23685547 2.62730469 0.23685547 2.62730469 -1 2 C-0.67 1.34 -0.34 0.68 0 0 Z " fill="#F2ECF9" transform="translate(168,9)"/>
<path d="M0 0 C0 0.66 0 1.32 0 2 C-0.76183594 2.3403125 -1.52367187 2.680625 -2.30859375 3.03125 C-9.60392024 6.4557728 -15.28910681 10.31794971 -21 16 C-21.99 15.67 -22.98 15.34 -24 15 C-8.23857868 0 -8.23857868 0 0 0 Z " fill="#FAF9F9" transform="translate(249,82)"/>
<path d="M0 0 C0.66 0.99 1.32 1.98 2 3 C1.41734375 3.52078125 0.8346875 4.0415625 0.234375 4.578125 C-2.38873056 7.4213513 -3.96718507 10.32150975 -5.75 13.75 C-6.06582031 14.35199219 -6.38164063 14.95398438 -6.70703125 15.57421875 C-7.47797895 17.046028 -8.23992324 18.52254742 -9 20 C-9.33 20 -9.66 20 -10 20 C-9.55290429 14.4532189 -8.19603571 11.15652206 -5 6.625 C-4.278125 5.58601563 -3.55625 4.54703125 -2.8125 3.4765625 C-1 1 -1 1 0 0 Z " fill="#E6DEF8" transform="translate(95,314)"/>
<path d="M0 0 C-0.33 0.99 -0.66 1.98 -1 3 C-1.99 3 -2.98 3 -4 3 C-4 2.34 -4 1.68 -4 1 C-4.66 1 -5.32 1 -6 1 C-6 1.66 -6 2.32 -6 3 C-8.64 3.33 -11.28 3.66 -14 4 C-14.33 3.01 -14.66 2.02 -15 1 C-4.63414634 -2.31707317 -4.63414634 -2.31707317 0 0 Z " fill="#FBFBF9" transform="translate(268,222)"/>
<path d="M0 0 C4.17882671 2.56428003 7.12505529 5.01930733 10 9 C9.01 9.33 8.02 9.66 7 10 C6.34 9.34 5.68 8.68 5 8 C4.01 8 3.02 8 2 8 C1.34 7.67 0.68 7.34 0 7 C0 4.69 0 2.38 0 0 Z " fill="#DBDDF8" transform="translate(311,89)"/>
<path d="M0 0 C0.66 0.33 1.32 0.66 2 1 C1.690625 2.155 1.38125 3.31 1.0625 4.5 C0.01654926 8.65413062 -0.5439042 12.7431059 -1 17 C-3 15 -3 15 -3.1953125 12.1796875 C-3.17210938 11.08914063 -3.14890625 9.99859375 -3.125 8.875 C-3.10695313 7.77929688 -3.08890625 6.68359375 -3.0703125 5.5546875 C-3.04710938 4.71164062 -3.02390625 3.86859375 -3 3 C-2.01 2.67 -1.02 2.34 0 2 C0 1.34 0 0.68 0 0 Z " fill="#E7DDFA" transform="translate(83,343)"/>
<path d="M0 0 C-1.32 2.31 -2.64 4.62 -4 7 C-4.66 6.34 -5.32 5.68 -6 5 C-6 4.01 -6 3.02 -6 2 C-8.97 1.67 -11.94 1.34 -15 1 C-15 0.67 -15 0.34 -15 0 C-13.06325815 -0.19517554 -11.12555991 -0.38087873 -9.1875 -0.5625 C-8.10855469 -0.66691406 -7.02960938 -0.77132813 -5.91796875 -0.87890625 C-3 -1 -3 -1 0 0 Z " fill="#CED7F6" transform="translate(191,289)"/>
<path d="M0 0 C5.60461531 0.42089996 10.72086547 0.91613111 16 3 C15.67 3.66 15.34 4.32 15 5 C12.36 4.34 9.72 3.68 7 3 C6.67 3.66 6.34 4.32 6 5 C6 4.34 6 3.68 6 3 C4.02 2.34 2.04 1.68 0 1 C0 0.67 0 0.34 0 0 Z " fill="#FBFCFB" transform="translate(281,221)"/>
<path d="M0 0 C1.65 1.65 3.3 3.3 5 5 C2.77810176 7.22189824 0.91517292 7.92598892 -2 9 C-2 6.69 -2 4.38 -2 2 C-1.34 2 -0.68 2 0 2 C0 1.34 0 0.68 0 0 Z " fill="#D2D8F9" transform="translate(321,98)"/>
<path d="M0 0 C-1.875 1.0625 -1.875 1.0625 -4 2 C-4.66 1.67 -5.32 1.34 -6 1 C-6 1.66 -6 2.32 -6 3 C-10.455 3.495 -10.455 3.495 -15 4 C-15 3.34 -15 2.68 -15 2 C-10.59410693 -0.93726205 -5.06616281 -1.89981105 0 0 Z " fill="#C3CFF8" transform="translate(142,295)"/>
<path d="M0 0 C0.33 0.66 0.66 1.32 1 2 C1.66 2.33 2.32 2.66 3 3 C1.35 7.95 -0.3 12.9 -2 18 C-2.66 18 -3.32 18 -4 18 C-2.68 12.06 -1.36 6.12 0 0 Z " fill="#DAD2F8" transform="translate(207,78)"/>
<path d="M0 0 C0.66 0 1.32 0 2 0 C1.67 3.63 1.34 7.26 1 11 C-1.79872437 8.47211993 -3.45773019 6.79588866 -4 3 C-3.34 2.67 -2.68 2.34 -2 2 C-1.34 2.33 -0.68 2.66 0 3 C0 2.01 0 1.02 0 0 Z " fill="#DCD6F5" transform="translate(94,381)"/>
<path d="M0 0 C2.75934016 1.37967008 3.17538641 3.0542345 4.5 5.8125 C4.9228125 6.68519531 5.345625 7.55789063 5.78125 8.45703125 C6.1834375 9.29621094 6.585625 10.13539063 7 11 C7.66397352 12.33467651 8.32961155 13.66853406 9 15 C8.01 15.495 8.01 15.495 7 16 C5.82268014 14.0898586 4.65848895 12.17162056 3.5 10.25 C2.8503125 9.18265625 2.200625 8.1153125 1.53125 7.015625 C0 4 0 4 0 0 Z " fill="#F9F3FA" transform="translate(85,377)"/>
<path d="M0 0 C3.65353155 1.43643121 4.93978166 3.05835031 6.75 6.5 C7.17796875 7.2940625 7.6059375 8.088125 8.046875 8.90625 C9 11 9 11 9 13 C6 12 6 12 4.8125 10.125 C4 8 4 8 4 5 C3.01 4.67 2.02 4.34 1 4 C0.3125 1.9375 0.3125 1.9375 0 0 Z " fill="#C6C0F0" transform="translate(193,30)"/>
<path d="M0 0 C0.33 0.66 0.66 1.32 1 2 C-0.11678083 3.6721852 -1.24366352 5.33762803 -2.375 7 C-3.00148437 7.928125 -3.62796875 8.85625 -4.2734375 9.8125 C-4.84320313 10.534375 -5.41296875 11.25625 -6 12 C-6.66 12 -7.32 12 -8 12 C-7.75 9.125 -7.75 9.125 -7 6 C-5.125 4.875 -5.125 4.875 -3 4 C-1.26574227 1.96682993 -1.26574227 1.96682993 0 0 Z " fill="#CED7F5" transform="translate(160,331)"/>
<path d="M0 0 C1.98 0.66 3.96 1.32 6 2 C5.25 3.9375 5.25 3.9375 4 6 C2 6.6875 2 6.6875 0 7 C-0.99 7.495 -0.99 7.495 -2 8 C-1.125 2.25 -1.125 2.25 0 0 Z " fill="#BCBDF7" transform="translate(87,187)"/>
<path d="M0 0 C1.32 0 2.64 0 4 0 C2.92598892 2.91517292 2.22189824 4.77810176 0 7 C-0.99 6.67 -1.98 6.34 -3 6 C-1.125 1.125 -1.125 1.125 0 0 Z " fill="#FCFBF9" transform="translate(211,259)"/>
<path d="M0 0 C0.66 0 1.32 0 2 0 C1.71640113 1.4391134 1.42278601 2.87625518 1.125 4.3125 C0.96257812 5.11300781 0.80015625 5.91351563 0.6328125 6.73828125 C0 9 0 9 -2 12 C-2.66 12 -3.32 12 -4 12 C-3.52494322 10.18641846 -3.04483958 8.37415821 -2.5625 6.5625 C-2.29566406 5.55316406 -2.02882813 4.54382813 -1.75390625 3.50390625 C-1 1 -1 1 0 0 Z " fill="#FAFBFE" transform="translate(463,225)"/>
<path d="M0 0 C0.66 0 1.32 0 2 0 C0.43358249 4.30764815 -1.68336156 8.06171464 -4 12 C-4.99 11.67 -5.98 11.34 -7 11 C-6.55011719 10.59136719 -6.10023438 10.18273437 -5.63671875 9.76171875 C-3.8834417 7.87453987 -2.91517671 6.13192342 -1.8125 3.8125 C-1.46832031 3.09707031 -1.12414062 2.38164063 -0.76953125 1.64453125 C-0.51558594 1.10183594 -0.26164063 0.55914062 0 0 Z " fill="#C2C4FA" transform="translate(188,124)"/>
<path d="M0 0 C1.32 0.33 2.64 0.66 4 1 C4.33 4.3 4.66 7.6 5 11 C2.09591658 7.12788877 1.14920536 4.59682146 0 0 Z " fill="#FEFDF5" transform="translate(83,88)"/>
<path d="M0 0 C0.99 0.33 1.98 0.66 3 1 C2.3125 3.375 2.3125 3.375 1 6 C-1.625 7.3125 -1.625 7.3125 -4 8 C-2.68 5.36 -1.36 2.72 0 0 Z " fill="#FAF8FB" transform="translate(155,340)"/>
<path d="M0 0 C0.33 0.99 0.66 1.98 1 3 C-0.9375 6.1875 -0.9375 6.1875 -3 9 C-3.66 7.68 -4.32 6.36 -5 5 C-3.35 3.35 -1.7 1.7 0 0 Z " fill="#FBFBF9" transform="translate(248,315)"/>
<path d="M0 0 C1.9375 0.375 1.9375 0.375 4 1 C4.33 1.66 4.66 2.32 5 3 C3.02 3.99 1.04 4.98 -1 6 C-1.33 5.34 -1.66 4.68 -2 4 C-1.0625 1.875 -1.0625 1.875 0 0 Z " fill="#CBC8FA" transform="translate(139,211)"/>
<path d="M0 0 C2.4375 0.6875 2.4375 0.6875 5 2 C5.8125 4.625 5.8125 4.625 6 7 C3.5625 6.3125 3.5625 6.3125 1 5 C0.1875 2.375 0.1875 2.375 0 0 Z " fill="#FCFDF6" transform="translate(106,134)"/>
<path d="M0 0 C-0.33 0.66 -0.66 1.32 -1 2 C-4.96 2 -8.92 2 -13 2 C-8.24378872 -1.17080752 -5.58805025 -1.14301028 0 0 Z " fill="#D3DAF6" transform="translate(298,140)"/>
<path d="M0 0 C2.66735273 2.48952921 4.55746343 4.63408134 6 8 C3.03 7.505 3.03 7.505 0 7 C0 4.69 0 2.38 0 0 Z " fill="#D3D9F9" transform="translate(326,104)"/>
<path d="M0 0 C2.97 0.33 5.94 0.66 9 1 C8.67 1.66 8.34 2.32 8 3 C6.68 2.67 5.36 2.34 4 2 C3.67 2.99 3.34 3.98 3 5 C2.87625 4.360625 2.7525 3.72125 2.625 3.0625 C2.315625 2.0415625 2.315625 2.0415625 2 1 C1.34 0.67 0.68 0.34 0 0 Z " fill="#F8FAFC" transform="translate(321,144)"/>
<path d="M0 0 C1.9375 0.3125 1.9375 0.3125 4 1 C4.33 1.99 4.66 2.98 5 4 C3.35 4.66 1.7 5.32 0 6 C0 4.02 0 2.04 0 0 Z " fill="#CFD9F8" transform="translate(330,113)"/>
<path d="M0 0 C3.96 1.98 3.96 1.98 8 4 C7.34 4.66 6.68 5.32 6 6 C2.535 4.02 2.535 4.02 -1 2 C-0.67 1.34 -0.34 0.68 0 0 Z " fill="#E8E5F9" transform="translate(299,82)"/>
<path d="M0 0 C2.97 0.495 2.97 0.495 6 1 C4.8125 2.5 4.8125 2.5 3 4 C0.3125 4.1875 0.3125 4.1875 -2 4 C-1.34 2.68 -0.68 1.36 0 0 Z " fill="#F1F0F5" transform="translate(168,265)"/>
<path d="M0 0 C0.66 0 1.32 0 2 0 C2 0.99 2 1.98 2 3 C2.66 3 3.32 3 4 3 C3.67 4.32 3.34 5.64 3 7 C2.01 6.34 1.02 5.68 0 5 C-0.1875 2.375 -0.1875 2.375 0 0 Z " fill="#FCFEF1" transform="translate(202,191)"/>
<path d="M0 0 C0.33 0.99 0.66 1.98 1 3 C1.66 3.33 2.32 3.66 3 4 C2.67 4.66 2.34 5.32 2 6 C-0.0625 6.625 -0.0625 6.625 -2 7 C-1.125 1.125 -1.125 1.125 0 0 Z " fill="#FEFDF0" transform="translate(85,44)"/>
<path d="M0 0 C2.97 0.33 5.94 0.66 9 1 C8.01 1.495 8.01 1.495 7 2 C7 2.66 7 3.32 7 4 C4.69 3.34 2.38 2.68 0 2 C0 1.34 0 0.68 0 0 Z " fill="#D5CDF1" transform="translate(155,9)"/>
<path d="M0 0 C3.875 1.75 3.875 1.75 5 4 C3.35 4 1.7 4 0 4 C0 2.68 0 1.36 0 0 Z " fill="#FCFCFA" transform="translate(202,272)"/>
<path d="M0 0 C0.33 0 0.66 0 1 0 C0.25 6.75 0.25 6.75 -2 9 C-3 6 -3 6 -1.5625 2.8125 C-1.046875 1.884375 -0.53125 0.95625 0 0 Z " fill="#B9C1F8" transform="translate(97,162)"/>
</svg>
