<?xml version="1.0" encoding="UTF-8"?>
<svg version="1.1" xmlns="http://www.w3.org/2000/svg" width="496" height="121">
<path d="M0 0 C5.32488862 3.59096535 8.8779592 8.36769178 11.02734375 14.3671875 C11.78917969 14.41617188 12.55101562 14.46515625 13.3359375 14.515625 C31.05286423 15.7984986 31.05286423 15.7984986 37.8125 21.9296875 C39.02734375 23.3671875 39.02734375 23.3671875 39.02734375 25.3671875 C39.68734375 25.3671875 40.34734375 25.3671875 41.02734375 25.3671875 C42.59119745 30.2542303 42.59119745 35.4801447 41.02734375 40.3671875 C40.36734375 40.3671875 39.70734375 40.3671875 39.02734375 40.3671875 C38.80046875 40.9446875 38.57359375 41.5221875 38.33984375 42.1171875 C36.11685507 45.92802524 33.16945383 47.98648414 29.02734375 49.3671875 C23.07438549 49.94542071 17.67462372 50.13609798 12.5859375 46.70703125 C9.69581804 44.22254259 7.3449294 41.38004884 5.02734375 38.3671875 C4.40859375 37.6040625 3.78984375 36.8409375 3.15234375 36.0546875 C2.02734375 34.3671875 2.02734375 34.3671875 2.02734375 32.3671875 C0.96515625 32.34140625 -0.09703125 32.315625 -1.19140625 32.2890625 C-16.40278964 31.75312111 -16.40278964 31.75312111 -21.97265625 27.3671875 C-22.56820312 26.90570313 -23.16375 26.44421875 -23.77734375 25.96875 C-27.44464138 22.50425224 -28.46260124 19.4451016 -28.78515625 14.4296875 C-28.48201132 8.92485113 -27.04637538 5.81733722 -23.10546875 1.99609375 C-15.14024122 -4.08723936 -8.83715832 -4.64756503 0 0 Z " fill="#000000" transform="translate(77.97265625,27.6328125)"/>
<path d="M0 0 C3.45708804 2.4229164 5.93482866 5.49465732 7.828125 9.28125 C8.37172946 14.23607094 8.39249574 18.15250852 6.140625 22.65625 C2.16342249 27.17091231 -2.18891651 30.91689291 -8.171875 32.28125 C-12.85020554 32.52234817 -17.49207206 32.45649921 -22.171875 32.28125 C-22.43484375 32.8484375 -22.6978125 33.415625 -22.96875 34 C-26.15809352 40.04732668 -30.81016436 46.5716325 -37.171875 49.28125 C-43.58973714 50.23048877 -49.36037229 50.48991027 -54.796875 46.59375 C-58.43962706 43.51570405 -60.81070012 40.17872675 -61.7109375 35.44921875 C-61.87343659 29.81345492 -61.70016189 26.08443176 -57.984375 21.65625 C-53.51393872 17.03972103 -49.1726196 16.17035969 -42.99169922 15.85253906 C-35.94578569 15.59529893 -35.94578569 15.59529893 -29.97265625 12.36328125 C-28.51275115 10.05585859 -28.51275115 10.05585859 -27.35546875 7.60546875 C-25.0677591 3.11310162 -21.04728753 0.33917502 -16.734375 -2.09375 C-10.3819912 -3.6431119 -5.66146133 -3.1204905 0 0 Z " fill="#000000" transform="translate(78.171875,64.71875)"/>
<path d="M0 0 C4.19931773 1.97230786 6.90935576 4.80710787 10 8.1875 C11.98683622 13.77547686 12.04230403 19.38195688 9.83984375 24.9140625 C8.91760167 26.77909802 7.9919154 28.64243507 7.0625 30.50390625 C5.52789748 34.10909378 5.81388781 36.30212083 7 40 C7.67553978 41.25650398 8.36393398 42.50615043 9.0625 43.75 C11.69174423 48.70029865 11.83174738 53.51382786 11 59 C8.81473658 63.45146251 6.0605479 66.18885145 2 69 C-3.08748695 70.69582898 -8.95241374 70.99131523 -14.1015625 69.31640625 C-18.19464737 67.14364534 -22.10223279 64.29494684 -24 60 C-25.54472329 51.3401876 -23.71848391 45.69657401 -19.21875 38.36328125 C-17.69928518 35.95563701 -17.69928518 35.95563701 -18.375 32.75 C-19.55691401 30.74983783 -20.8186037 28.79617103 -22.125 26.875 C-25.04526361 21.94568285 -24.7475689 16.53355127 -24 11 C-22.4375 7.5625 -22.4375 7.5625 -20 5 C-19.54882812 4.51660156 -19.09765625 4.03320312 -18.6328125 3.53515625 C-13.31114935 -1.24375021 -6.78009664 -1.18714393 0 0 Z " fill="#000000" transform="translate(41,7)"/>
<path d="M0 0 C4.74203667 -1.15173904 9.37639404 -1.84405657 14 0 C18.84280706 4.12790993 21.98714863 10.02187188 25.31298828 15.36865234 C28.13999082 19.77812171 31.29723029 23.9358902 34.4375 28.125 C35.56206613 29.64779672 36.6857979 31.17121004 37.80859375 32.6953125 C40.85047373 36.81375754 43.92766991 40.90355988 47 45 C47.33 32.13 47.66 19.26 48 6 C45.03 6 42.06 6 39 6 C39 4.02 39 2.04 39 0 C46.59 0 54.18 0 62 0 C62 1.98 62 3.96 62 6 C59.36 6 56.72 6 54 6 C54 23.82 54 41.64 54 60 C48.37518121 58.87503624 48.37518121 58.87503624 46.16015625 55.8515625 C45.66136963 55.18503662 45.16258301 54.51851074 44.64868164 53.83178711 C44.1252417 53.10354736 43.60180176 52.37530762 43.0625 51.625 C42.50618896 50.87420166 41.94987793 50.12340332 41.37670898 49.34985352 C39.57202163 46.9088095 37.78642526 44.45443023 36 42 C34.75153051 40.30746373 33.50152686 38.61605804 32.25 36.92578125 C29.40900238 33.08603312 26.57960806 29.23805523 23.76000977 25.38256836 C21.19278992 21.90725993 18.59241569 18.45655425 16 15 C15.67 27.87 15.34 40.74 15 54 C17.97 54 20.94 54 24 54 C24 55.98 24 57.96 24 60 C16.74 60 9.48 60 2 60 C2 58.02 2 56.04 2 54 C3.98 54 5.96 54 8 54 C8 38.16 8 22.32 8 6 C5.36 6 2.72 6 0 6 C0 4.02 0 2.04 0 0 Z " fill="#000000" transform="translate(240,31)"/>
<path d="M0 0 C4.41077344 -0.07471341 8.82120184 -0.12886513 13.23242188 -0.16479492 C14.72988307 -0.17978888 16.22730105 -0.20019105 17.72460938 -0.22631836 C36.25335665 -0.54130706 36.25335665 -0.54130706 41.53686523 4.45263672 C46.07790286 9.67202004 46.34566108 13.28466717 46.28125 20.015625 C45.78071975 25.32680712 43.28594046 27.89776532 39.375 31.25 C38.59125 31.8275 37.8075 32.405 37 33 C36.34 33.66 35.68 34.32 35 35 C36.28321341 38.00327496 37.63426679 40.97094835 39 43.9375 C39.54333984 45.21270508 39.54333984 45.21270508 40.09765625 46.51367188 C42.1065998 51.12615589 42.1065998 51.12615589 46.09765625 53.78955078 C48.55048327 54.1493466 48.55048327 54.1493466 52 54 C52 55.98 52 57.96 52 60 C48.04 60 44.08 60 40 60 C38.39423116 57.12588466 36.79033959 54.25074836 35.1875 51.375 C34.73568359 50.56675781 34.28386719 49.75851563 33.81835938 48.92578125 C33.37685547 48.13300781 32.93535156 47.34023437 32.48046875 46.5234375 C32.04436279 45.74983887 31.60825684 44.97624023 31.15893555 44.17919922 C30 42 30 42 28.59375 38.46875 C27.1816633 35.66826213 27.1816633 35.66826213 23.86328125 35.1953125 C22.69152344 35.17210937 21.51976562 35.14890625 20.3125 35.125 C18.229375 35.08375 16.14625 35.0425 14 35 C14 41.27 14 47.54 14 54 C16.64 54 19.28 54 22 54 C22 55.98 22 57.96 22 60 C14.74 60 7.48 60 0 60 C0 58.02 0 56.04 0 54 C2.31 54 4.62 54 7 54 C7 38.16 7 22.32 7 6 C4.69 6 2.38 6 0 6 C0 4.02 0 2.04 0 0 Z M14 6 C14 13.59 14 21.18 14 29 C16.866875 29.061875 19.73375 29.12375 22.6875 29.1875 C23.58170654 29.21481201 24.47591309 29.24212402 25.3972168 29.27026367 C30.06327731 29.31892843 33.28902767 29.15751948 37 26 C39.89281813 21.78349842 39.66022115 16.91586348 39 12 C36.89495409 8.44319828 35.91593192 7.30531064 32 6 C30.59175107 5.91978001 29.18002769 5.89234023 27.76953125 5.90234375 C26.68442261 5.90609009 26.68442261 5.90609009 25.57739258 5.90991211 C24.20877075 5.92356812 24.20877075 5.92356812 22.8125 5.9375 C19.904375 5.958125 16.99625 5.97875 14 6 Z " fill="#000000" transform="translate(363,31)"/>
<path d="M0 0 C14.52 0 29.04 0 44 0 C44.495 8.415 44.495 8.415 45 17 C43.02 17 41.04 17 39 17 C38.505 11.555 38.505 11.555 38 6 C30.08 6 22.16 6 14 6 C14 12.6 14 19.2 14 26 C23.24 26 32.48 26 42 26 C42 27.98 42 29.96 42 32 C32.76 32 23.52 32 14 32 C14 39.26 14 46.52 14 54 C22.25 54 30.5 54 39 54 C39.33 50.04 39.66 46.08 40 42 C42.97 42.495 42.97 42.495 46 43 C45.85978195 45.64624284 45.71310224 48.29184578 45.5625 50.9375 C45.52318359 51.69224609 45.48386719 52.44699219 45.44335938 53.22460938 C45.11328125 58.88671875 45.11328125 58.88671875 44 60 C42.61839885 60.0927833 41.23211962 60.11747043 39.84741211 60.11352539 C38.96657455 60.11344986 38.085737 60.11337433 37.1782074 60.11329651 C36.22092239 60.10813522 35.26363739 60.10297394 34.27734375 60.09765625 C33.30213272 60.0962413 32.32692169 60.09482635 31.32215881 60.09336853 C28.19390857 60.08775133 25.06572877 60.07519593 21.9375 60.0625 C19.82226666 60.05748722 17.70703219 60.05292393 15.59179688 60.04882812 C10.39450704 60.03777631 5.19725855 60.02102146 0 60 C0 58.02 0 56.04 0 54 C2.31 54 4.62 54 7 54 C7 38.16 7 22.32 7 6 C4.69 6 2.38 6 0 6 C0 4.02 0 2.04 0 0 Z " fill="#000000" transform="translate(309,31)"/>
<path d="M0 0 C14.52 0 29.04 0 44 0 C44.495 8.415 44.495 8.415 45 17 C43.02 17 41.04 17 39 17 C38.505 11.555 38.505 11.555 38 6 C30.08 6 22.16 6 14 6 C14 12.6 14 19.2 14 26 C23.24 26 32.48 26 42 26 C42 27.98 42 29.96 42 32 C32.76 32 23.52 32 14 32 C14 39.26 14 46.52 14 54 C22.25 54 30.5 54 39 54 C39.33 50.04 39.66 46.08 40 42 C42.97 42.495 42.97 42.495 46 43 C45.85978195 45.64624284 45.71310224 48.29184578 45.5625 50.9375 C45.52318359 51.69224609 45.48386719 52.44699219 45.44335938 53.22460938 C45.11328125 58.88671875 45.11328125 58.88671875 44 60 C42.61839885 60.0927833 41.23211962 60.11747043 39.84741211 60.11352539 C38.96657455 60.11344986 38.085737 60.11337433 37.1782074 60.11329651 C36.22092239 60.10813522 35.26363739 60.10297394 34.27734375 60.09765625 C33.30213272 60.0962413 32.32692169 60.09482635 31.32215881 60.09336853 C28.19390857 60.08775133 25.06572877 60.07519593 21.9375 60.0625 C19.82226666 60.05748722 17.70703219 60.05292393 15.59179688 60.04882812 C10.39450704 60.03777631 5.19725855 60.02102146 0 60 C0 58.02 0 56.04 0 54 C2.31 54 4.62 54 7 54 C7 38.16 7 22.32 7 6 C4.69 6 2.38 6 0 6 C0 4.02 0 2.04 0 0 Z " fill="#000000" transform="translate(188,31)"/>
<path d="M0 0 C0.73046875 2.8203125 0.73046875 2.8203125 1.1875 6.125 C1.34605469 7.22070312 1.50460938 8.31640625 1.66796875 9.4453125 C1.77753906 10.28835937 1.88710937 11.13140625 2 12 C-0.97 12.495 -0.97 12.495 -4 13 C-4.14695313 12.38511719 -4.29390625 11.77023438 -4.4453125 11.13671875 C-4.66960937 10.32847656 -4.89390625 9.52023438 -5.125 8.6875 C-5.33382812 7.88699219 -5.54265625 7.08648437 -5.7578125 6.26171875 C-7.56728692 2.96710966 -9.5132785 2.29122747 -13 1 C-20.45292162 0.02576188 -28.21483532 -0.37247887 -34.41796875 4.37109375 C-41.4341064 11.59511696 -42.3751251 18.60046535 -42.2734375 28.3828125 C-41.74246967 35.40675836 -39.73312376 40.8166338 -34.4375 45.5625 C-30.32291094 48.79735509 -26.79000183 49.17908464 -21.625 49.25 C-20.50351563 49.27578125 -19.38203125 49.3015625 -18.2265625 49.328125 C-13.66251389 48.86398446 -11.13753657 47.04003343 -7.8125 44 C-5.10609894 39.52043962 -4.74671206 35.16475841 -4 30 C-8.95 30 -13.9 30 -19 30 C-19 28.02 -19 26.04 -19 24 C-10.42 24 -1.84 24 7 24 C7 25.98 7 27.96 7 30 C5.35 30 3.7 30 2 30 C2 38.25 2 46.5 2 55 C0.35 55 -1.3 55 -3 55 C-3 52.69 -3 50.38 -3 48 C-3.50789063 48.40992188 -4.01578125 48.81984375 -4.5390625 49.2421875 C-12.10168969 55.1619968 -18.37478734 57.03314103 -28 56 C-36.03793773 54.04893081 -41.94544219 49.98228179 -46.28125 42.91015625 C-50.95721735 33.94231887 -51.76973908 22.8024456 -48.875 13.0625 C-45.27423589 4.23482024 -39.54803494 -0.92346189 -31 -5 C-20.61682113 -8.45403922 -8.90364427 -5.93576285 0 0 Z " fill="#000000" transform="translate(174,36)"/>
<path d="M0 0 C5.61 0 11.22 0 17 0 C18.62857951 3.9568909 20.25271948 7.91552656 21.875 11.875 C22.3702417 13.07688965 22.8654834 14.2787793 23.37573242 15.51708984 C25.96079512 21.81890685 28.44380396 28.13568987 30.74609375 34.546875 C31.17873535 35.73555176 31.61137695 36.92422852 32.05712891 38.14892578 C32.88339903 40.43683594 33.68966684 42.73208535 34.47412109 45.03466797 C35.03800537 46.58371826 35.03800537 46.58371826 35.61328125 48.1640625 C35.93079346 49.07623535 36.24830566 49.9884082 36.57543945 50.92822266 C37.90079915 53.34285233 37.90079915 53.34285233 41.14916992 53.80224609 C42.08994385 53.86750488 43.03071777 53.93276367 44 54 C44 55.98 44 57.96 44 60 C37.07 60 30.14 60 23 60 C23 58.02 23 56.04 23 54 C25.31 53.67 27.62 53.34 30 53 C29.01 49.7 28.02 46.4 27 43 C18.42 43.33 9.84 43.66 1 44 C-0.98 48.95 -0.98 48.95 -3 54 C-0.36 54 2.28 54 5 54 C5 55.98 5 57.96 5 60 C-1.93 60 -8.86 60 -16 60 C-16 58.02 -16 56.04 -16 54 C-14.02 54 -12.04 54 -10 54 C-9.82449615 53.4535936 -9.64899231 52.90718719 -9.46817017 52.34422302 C-7.66961332 46.83565129 -5.65433965 41.45989676 -3.4609375 36.09765625 C-3.13461334 35.29388046 -2.80828918 34.49010468 -2.47207642 33.66197205 C-1.78933309 31.98171679 -1.10526805 30.30199802 -0.41992188 28.62280273 C0.63176894 26.04591451 1.67950795 23.46744698 2.7265625 20.88867188 C3.39300363 19.24990826 4.05966238 17.61123313 4.7265625 15.97265625 C5.04009674 15.20188248 5.35363098 14.4311087 5.67666626 13.63697815 C7.88218968 8.23562065 7.88218968 8.23562065 9 6 C6.03 6 3.06 6 0 6 C0 4.02 0 2.04 0 0 Z M13 10 C9.7 18.91 6.4 27.82 3 37 C10.26 37 17.52 37 25 37 C21.7 28.09 18.4 19.18 15 10 C14.34 10 13.68 10 13 10 Z " fill="#000000" transform="translate(432,31)"/>
</svg>
